<svg xmlns="http://www.w3.org/2000/svg" xmlns:xlink="http://www.w3.org/1999/xlink" version="1.1" x="0px" y="0px" viewBox="0 0 100 100" enable-background="new 0 0 100 100" xml:space="preserve"><path d="M50,5.5C25.424,5.5,5.5,25.424,5.5,50c0,24.577,19.924,44.5,44.5,44.5c24.577,0,44.5-19.923,44.5-44.5  C94.5,25.424,74.577,5.5,50,5.5z M75.819,55.63c0,0.569-0.229,1.166-0.683,1.791c-0.456,0.627-1.062,0.939-1.821,0.939h-14.33  v14.955c0,0.683-0.208,1.271-0.625,1.764c-0.418,0.493-1.043,0.74-1.877,0.74h-12.74c-0.568,0-1.166-0.229-1.792-0.683  c-0.625-0.456-0.938-1.062-0.938-1.821V58.36h-14.33c-1.669,0-2.502-0.909-2.502-2.73V44.085c0-1.667,0.833-2.502,2.502-2.502h14.33  V26.684c0-1.668,0.91-2.502,2.729-2.502h12.74c1.668,0,2.502,0.834,2.502,2.502v14.898h14.33c0.683,0,1.271,0.219,1.764,0.654  c0.492,0.436,0.74,1.052,0.74,1.848V55.63z"/></svg>