<svg xmlns="http://www.w3.org/2000/svg" xmlns:xlink="http://www.w3.org/1999/xlink" version="1.1" x="0px" y="0px" viewBox="0 0 100 100" enable-background="new 0 0 100 100" xml:space="preserve"><path d="M50,5.5C25.424,5.5,5.5,25.424,5.5,50c0,24.577,19.924,44.5,44.5,44.5c24.577,0,44.5-19.923,44.5-44.5  C94.5,25.424,74.577,5.5,50,5.5z M75.819,55.659c0,0.569-0.229,1.166-0.683,1.792c-0.456,0.625-1.062,0.938-1.82,0.938H26.684  c-1.669,0-2.502-0.91-2.502-2.729V44.114c0-1.668,0.833-2.502,2.502-2.502h46.632c0.682,0,1.27,0.218,1.763,0.654  c0.492,0.436,0.74,1.052,0.74,1.849V55.659z"/></svg>